<svg xmlns="http://www.w3.org/2000/svg" xmlns:inkscape="http://www.inkscape.org/namespaces/inkscape" width="30.4800mm" height="128.6933mm" viewBox="0 0 30.4800 128.6933">
<rect x="-1" y="-1" width="32.4800" height="130.6933" fill="#EDEEF0"/>
<rect x="-1" y="13.4" width="32.4800" height="1.0" fill="#0A9E8B"/>
<rect x="-1" y="67.790" width="32.4800" height="61.903" fill="#FFFFFF"/>
<rect x="-1" y="67.790" width="32.4800" height="0.3" fill="#B4BCC6"/>
<rect x="9.940" y="104.700" width="10.6" height="10.6" rx="1.6" fill="#1E2530"/>
<path d="M 9.8183,10.2000 L 9.8183,7.0000 L 11.7683,7.0000 L 11.7683,7.3608 L 10.2263,7.3608 L 10.2263,8.4046 L 11.6631,8.4046 L 11.6631,8.7654 L 10.2263,8.7654 L 10.2263,9.8392 L 11.7876,9.8392 L 11.7876,10.2000 L 9.8183,10.2000 Z M 13.7141,10.2515 Q 13.3361,10.2515 13.0537,10.1034 Q 12.7713,9.9552 12.6166,9.6974 Q 12.4620,9.4397 12.4620,9.1111 L 12.4620,7.0000 L 12.8701,7.0000 L 12.8701,9.0789 Q 12.8701,9.3087 12.9721,9.4881 Q 13.0741,9.6674 13.2631,9.7705 Q 13.4521,9.8736 13.7141,9.8736 Q 13.9761,9.8736 14.1640,9.7705 Q 14.3519,9.6674 14.4529,9.4881 Q 14.5538,9.3087 14.5538,9.0789 L 14.5538,7.0000 L 14.9619,7.0000 L 14.9619,9.1111 Q 14.9619,9.4397 14.8072,9.6974 Q 14.6526,9.9552 14.3723,10.1034 Q 14.0921,10.2515 13.7141,10.2515 Z M 17.0301,10.2430 Q 16.6199,10.2430 16.2988,10.0443 Q 15.9777,9.8456 15.7941,9.4773 Q 15.6105,9.1090 15.6105,8.6021 Q 15.6105,8.0932 15.7941,7.7248 Q 15.9777,7.3565 16.2988,7.1568 Q 16.6199,6.9570 17.0301,6.9570 Q 17.3544,6.9570 17.6260,7.0827 Q 17.8977,7.2083 18.0813,7.4424 Q 18.2650,7.6765 18.3208,8.0072 L 17.9127,8.0072 Q 17.8676,7.7882 17.7377,7.6379 Q 17.6078,7.4875 17.4231,7.4113 Q 17.2384,7.3350 17.0301,7.3350 Q 16.7423,7.3350 16.5103,7.4811 Q 16.2784,7.6271 16.1431,7.9095 Q 16.0078,8.1919 16.0078,8.6021 Q 16.0078,9.0102 16.1442,9.2926 Q 16.2805,9.5750 16.5125,9.7200 Q 16.7444,9.8650 17.0301,9.8650 Q 17.2405,9.8650 17.4242,9.7877 Q 17.6078,9.7103 17.7377,9.5600 Q 17.8676,9.4097 17.9127,9.1928 L 18.3208,9.1928 Q 18.2650,9.5170 18.0835,9.7533 Q 17.9020,9.9895 17.6303,10.1162 Q 17.3587,10.2430 17.0301,10.2430 Z M 18.9479,10.2000 L 18.9479,7.0000 L 19.3560,7.0000 L 19.3560,9.8392 L 20.8379,9.8392 L 20.8379,10.2000 L 18.9479,10.2000 Z" fill="#161A21"/>
<path d="M 6.7467,21.0800 L 6.7467,19.0800 L 7.0017,19.0800 L 7.0017,20.8545 L 7.9279,20.8545 L 7.9279,21.0800 L 6.7467,21.0800 Z M 8.3011,21.0800 L 8.3011,19.0800 L 9.5198,19.0800 L 9.5198,19.3055 L 8.5561,19.3055 L 8.5561,19.9579 L 9.4541,19.9579 L 9.4541,20.1834 L 8.5561,20.1834 L 8.5561,20.8545 L 9.5319,20.8545 L 9.5319,21.0800 L 8.3011,21.0800 Z M 9.9534,21.0800 L 9.9534,19.0800 L 10.2541,19.0800 L 11.0675,20.3592 Q 11.1078,20.4236 11.1715,20.5330 Q 11.2353,20.6424 11.3037,20.7780 Q 11.2917,20.6330 11.2890,20.5102 Q 11.2863,20.3874 11.2863,20.3068 L 11.2863,19.0800 L 11.5413,19.0800 L 11.5413,21.0800 L 11.2380,21.0800 L 10.5131,19.9417 Q 10.4675,19.8706 10.4225,19.7954 Q 10.3776,19.7203 10.3225,19.6223 Q 10.2675,19.5243 10.1896,19.3860 Q 10.1977,19.5780 10.2037,19.7223 Q 10.2098,19.8666 10.2098,19.9391 L 10.2098,21.0800 L 9.9534,21.0800 Z" fill="#333B45"/>
<path d="M 18.8427,21.0800 L 18.8427,19.0800 L 20.0521,19.0800 L 20.0521,19.3055 L 19.0977,19.3055 L 19.0977,19.9901 L 19.9608,19.9901 L 19.9608,20.2156 L 19.0977,20.2156 L 19.0977,21.0800 L 18.8427,21.0800 Z M 20.7206,19.0800 L 20.7206,21.0800 L 20.4655,21.0800 L 20.4655,19.0800 L 20.7206,19.0800 Z M 21.2038,21.0800 L 21.2038,19.0800 L 21.4588,19.0800 L 21.4588,20.8545 L 22.3850,20.8545 L 22.3850,21.0800 L 21.2038,21.0800 Z M 22.7581,21.0800 L 22.7581,19.0800 L 23.0132,19.0800 L 23.0132,20.8545 L 23.9394,20.8545 L 23.9394,21.0800 L 22.7581,21.0800 Z" fill="#333B45"/>
<path d="M 12.6997,45.0800 L 12.6997,43.0800 L 13.3843,43.0800 Q 13.6178,43.0800 13.7689,43.1599 Q 13.9199,43.2397 13.9930,43.3793 Q 14.0662,43.5189 14.0662,43.6974 Q 14.0662,43.8961 13.9756,44.0438 Q 13.8850,44.1914 13.6957,44.2572 L 14.1440,45.0800 L 13.8487,45.0800 L 13.4326,44.3028 Q 13.4098,44.3042 13.3856,44.3042 L 12.9548,44.3042 L 12.9548,45.0800 L 12.6997,45.0800 Z M 12.9548,44.0773 L 13.3736,44.0773 Q 13.6098,44.0773 13.7111,43.9753 Q 13.8125,43.8733 13.8125,43.6974 Q 13.8125,43.5189 13.7111,43.4115 Q 13.6098,43.3042 13.3709,43.3042 L 12.9548,43.3042 L 12.9548,44.0773 Z M 15.2796,45.1068 Q 15.0232,45.1068 14.8226,44.9827 Q 14.6219,44.8585 14.5064,44.6283 Q 14.3910,44.3981 14.3910,44.0813 Q 14.3910,43.7632 14.5064,43.5330 Q 14.6219,43.3028 14.8226,43.1780 Q 15.0232,43.0532 15.2796,43.0532 Q 15.5360,43.0532 15.7360,43.1780 Q 15.9360,43.3028 16.0507,43.5330 Q 16.1655,43.7632 16.1655,44.0813 Q 16.1655,44.3981 16.0507,44.6283 Q 15.9360,44.8585 15.7360,44.9827 Q 15.5360,45.1068 15.2796,45.1068 Z M 15.2796,44.8706 Q 15.4581,44.8706 15.6024,44.7800 Q 15.7467,44.6894 15.8319,44.5129 Q 15.9172,44.3364 15.9172,44.0813 Q 15.9172,43.8236 15.8319,43.6471 Q 15.7467,43.4706 15.6024,43.3800 Q 15.4581,43.2894 15.2796,43.2894 Q 15.0997,43.2894 14.9548,43.3807 Q 14.8098,43.4719 14.7246,43.6485 Q 14.6393,43.8250 14.6393,44.0813 Q 14.6393,44.3364 14.7246,44.5122 Q 14.8098,44.6881 14.9548,44.7793 Q 15.0997,44.8706 15.2796,44.8706 Z M 16.3789,43.3055 L 16.3789,43.0800 L 17.8903,43.0800 L 17.8903,43.3055 L 17.2635,43.3055 L 17.2635,45.0800 L 17.0085,45.0800 L 17.0085,43.3055 L 16.3789,43.3055 Z" fill="#333B45"/>
<path d="M 7.4903,71.3168 Q 7.2339,71.3168 7.0333,71.1927 Q 6.8326,71.0685 6.7178,70.8383 Q 6.6031,70.6081 6.6031,70.2913 Q 6.6031,69.9732 6.7178,69.7430 Q 6.8326,69.5128 7.0333,69.3880 Q 7.2339,69.2632 7.4903,69.2632 Q 7.6930,69.2632 7.8628,69.3417 Q 8.0326,69.4202 8.1473,69.5665 Q 8.2621,69.7128 8.2970,69.9195 L 8.0420,69.9195 Q 8.0138,69.7826 7.9326,69.6887 Q 7.8514,69.5947 7.7359,69.5470 Q 7.6205,69.4994 7.4903,69.4994 Q 7.3104,69.4994 7.1655,69.5907 Q 7.0205,69.6819 6.9359,69.8585 Q 6.8514,70.0350 6.8514,70.2913 Q 6.8514,70.5464 6.9366,70.7229 Q 7.0218,70.8994 7.1668,70.9900 Q 7.3118,71.0806 7.4903,71.0806 Q 7.6218,71.0806 7.7366,71.0323 Q 7.8514,70.9840 7.9326,70.8900 Q 8.0138,70.7960 8.0420,70.6605 L 8.2970,70.6605 Q 8.2621,70.8632 8.1487,71.0108 Q 8.0353,71.1585 7.8655,71.2377 Q 7.6957,71.3168 7.4903,71.3168 Z M 8.6890,71.2900 L 8.6890,69.2900 L 8.9440,69.2900 L 8.9440,71.0645 L 9.8702,71.0645 L 9.8702,71.2900 L 8.6890,71.2900 Z M 10.2433,71.2900 L 10.2433,69.2900 L 10.4984,69.2900 L 10.4984,69.9746 L 10.4943,70.3423 Q 10.5776,70.2336 10.6628,70.1343 Q 10.7480,70.0350 10.8393,69.9356 L 11.4366,69.2900 L 11.7708,69.2900 L 10.9628,70.1558 L 11.7722,71.2900 L 11.4702,71.2900 L 10.7870,70.3289 L 10.4984,70.6336 L 10.4984,71.2900 L 10.2433,71.2900 Z" fill="#333B45"/>
<path d="M 18.9306,71.2900 L 18.9306,69.2900 L 19.6152,69.2900 Q 19.8488,69.2900 19.9998,69.3699 Q 20.1508,69.4497 20.2239,69.5893 Q 20.2971,69.7289 20.2971,69.9074 Q 20.2971,70.1061 20.2065,70.2538 Q 20.1159,70.4014 19.9266,70.4672 L 20.3749,71.2900 L 20.0796,71.2900 L 19.6635,70.5128 Q 19.6407,70.5142 19.6165,70.5142 L 19.1857,70.5142 L 19.1857,71.2900 L 18.9306,71.2900 Z M 19.1857,70.2873 L 19.6045,70.2873 Q 19.8407,70.2873 19.9420,70.1853 Q 20.0434,70.0833 20.0434,69.9074 Q 20.0434,69.7289 19.9420,69.6215 Q 19.8407,69.5142 19.6018,69.5142 L 19.1857,69.5142 L 19.1857,70.2873 Z M 21.3400,71.3249 Q 21.0152,71.3249 20.8233,71.1712 Q 20.6313,71.0175 20.6139,70.7665 L 20.8756,70.7665 Q 20.8863,70.8793 20.9521,70.9524 Q 21.0179,71.0256 21.1206,71.0611 Q 21.2233,71.0967 21.3400,71.0967 Q 21.4756,71.0967 21.5837,71.0524 Q 21.6917,71.0081 21.7548,70.9276 Q 21.8179,70.8470 21.8179,70.7410 Q 21.8179,70.6444 21.7635,70.5840 Q 21.7092,70.5236 21.6192,70.4846 Q 21.5293,70.4457 21.4219,70.4162 L 21.1803,70.3477 Q 20.9387,70.2793 20.8045,70.1517 Q 20.6702,70.0242 20.6702,69.8256 Q 20.6702,69.6564 20.7615,69.5296 Q 20.8528,69.4028 21.0085,69.3330 Q 21.1642,69.2632 21.3575,69.2632 Q 21.5548,69.2632 21.7065,69.3330 Q 21.8582,69.4028 21.9461,69.5229 Q 22.0340,69.6430 22.0394,69.7947 L 21.7897,69.7947 Q 21.7722,69.6484 21.6501,69.5685 Q 21.5280,69.4887 21.3494,69.4887 Q 21.1548,69.4887 21.0367,69.5806 Q 20.9186,69.6726 20.9186,69.8135 Q 20.9186,69.9182 20.9837,69.9819 Q 21.0488,70.0457 21.1380,70.0813 Q 21.2273,70.1168 21.2998,70.1370 L 21.4998,70.1920 Q 21.5803,70.2135 21.6776,70.2511 Q 21.7749,70.2887 21.8635,70.3511 Q 21.9521,70.4135 22.0092,70.5095 Q 22.0662,70.6054 22.0662,70.7450 Q 22.0662,70.9088 21.9810,71.0403 Q 21.8957,71.1719 21.7333,71.2484 Q 21.5709,71.3249 21.3400,71.3249 Z M 22.3400,69.5155 L 22.3400,69.2900 L 23.8514,69.2900 L 23.8514,69.5155 L 23.2246,69.5155 L 23.2246,71.2900 L 22.9696,71.2900 L 22.9696,69.5155 L 22.3400,69.5155 Z" fill="#333B45"/>
<path d="M 12.7595,103.3168 Q 12.4924,103.3168 12.2910,103.1920 Q 12.0897,103.0672 11.9769,102.8370 Q 11.8642,102.6068 11.8642,102.2913 Q 11.8642,101.9732 11.9769,101.7430 Q 12.0897,101.5128 12.2883,101.3880 Q 12.4870,101.2632 12.7434,101.2632 Q 12.9554,101.2632 13.1279,101.3457 Q 13.3004,101.4283 13.4145,101.5752 Q 13.5286,101.7222 13.5648,101.9168 L 13.3018,101.9168 Q 13.2400,101.7249 13.0984,101.6121 Q 12.9568,101.4994 12.7447,101.4994 Q 12.5689,101.4994 12.4252,101.5900 Q 12.2816,101.6806 12.1971,101.8571 Q 12.1125,102.0336 12.1125,102.2913 Q 12.1125,102.5464 12.1977,102.7222 Q 12.2830,102.8981 12.4293,102.9893 Q 12.5756,103.0806 12.7595,103.0806 Q 12.9259,103.0806 13.0534,103.0108 Q 13.1809,102.9410 13.2541,102.8121 Q 13.3273,102.6833 13.3299,102.5074 L 12.8118,102.5074 L 12.8118,102.2846 L 13.5796,102.2846 L 13.5796,102.5034 Q 13.5796,102.7517 13.4736,102.9343 Q 13.3675,103.1168 13.1830,103.2168 Q 12.9984,103.3168 12.7595,103.3168 Z M 13.7595,103.2900 L 14.4856,101.2900 L 14.7809,101.2900 L 15.5165,103.2900 L 15.2481,103.2900 L 15.0481,102.7316 L 14.2239,102.7316 L 14.0306,103.2900 L 13.7595,103.2900 Z M 14.3017,102.5088 L 14.9689,102.5088 L 14.8239,102.1034 Q 14.7877,102.0028 14.7420,101.8571 Q 14.6964,101.7115 14.6320,101.4940 Q 14.5689,101.7155 14.5219,101.8632 Q 14.4749,102.0108 14.4427,102.1034 L 14.3017,102.5088 Z M 15.4843,101.5155 L 15.4843,101.2900 L 16.9957,101.2900 L 16.9957,101.5155 L 16.3689,101.5155 L 16.3689,103.2900 L 16.1138,103.2900 L 16.1138,101.5155 L 15.4843,101.5155 Z M 17.3689,103.2900 L 17.3689,101.2900 L 18.5876,101.2900 L 18.5876,101.5155 L 17.6239,101.5155 L 17.6239,102.1679 L 18.5219,102.1679 L 18.5219,102.3934 L 17.6239,102.3934 L 17.6239,103.0645 L 18.5997,103.0645 L 18.5997,103.2900 L 17.3689,103.2900 Z" fill="#333B45"/>
<circle cx="7.620" cy="2.54" r="2.55" fill="none" stroke="#C6CCD3" stroke-width="0.35"/>
<circle cx="7.620" cy="126.153" r="2.55" fill="none" stroke="#C6CCD3" stroke-width="0.35"/>
<circle cx="22.860" cy="2.54" r="2.55" fill="none" stroke="#C6CCD3" stroke-width="0.35"/>
<circle cx="22.860" cy="126.153" r="2.55" fill="none" stroke="#C6CCD3" stroke-width="0.35"/>
<g inkscape:label="components" id="components" style="display:none">
<circle inkscape:label="LENGTH_PARAM" cx="9.144" cy="28.000" r="2" fill="#ff0000"/>
<circle inkscape:label="FILL_PARAM" cx="21.336" cy="28.000" r="2" fill="#ff0000"/>
<circle inkscape:label="ROTATE_PARAM" cx="15.240" cy="52.000" r="2" fill="#ff0000"/>
<circle inkscape:label="CLOCK_INPUT" cx="9.144" cy="78.000" r="2" fill="#00ff00"/>
<circle inkscape:label="RESET_INPUT" cx="21.336" cy="78.000" r="2" fill="#00ff00"/>
<circle inkscape:label="GATE_OUTPUT" cx="15.240" cy="110.000" r="2" fill="#0000ff"/>
<circle inkscape:label="STEP_LIGHT" cx="15.240" cy="93.000" r="2" fill="#ff00ff"/>
</g></svg>